<svg width="521" height="458" viewBox="0 0 521 458" fill="none" xmlns="http://www.w3.org/2000/svg">
<g clip-path="url(#clip0_36_44)">
<path d="M454.036 199.823C453.662 208.219 446.587 218.335 441.254 218.115C435.061 217.872 425.827 208.947 425.827 202.93C425.607 196.098 434.51 190.368 445 190.545C451.458 190.17 454.433 193.476 454.036 199.823Z" fill="#1C1C1C"/>
<path d="M470.808 187.106C460.802 181.685 455.381 170.401 443.612 167.272C440.615 166.5 441.585 162.864 441.408 160.484C438.279 124.649 421.574 96.5725 392.747 75.6139C388.075 72.22 386.136 69.2889 386.136 63.4487C385.695 45.5755 373.574 34.6003 355.613 34.6003C349.729 34.4435 343.893 35.7054 338.6 38.2793C333.306 40.8532 328.71 44.6634 325.2 49.3882C320.461 55.4928 316.649 57.7407 311.161 49.5424C304.241 39.2063 294.456 36.3194 283.304 41.6086C277.288 44.4295 274.004 43.6802 269.178 39.4047C206.456 -16.0881 113.586 -12.7162 54.7216 47.1843C49.0357 52.9584 45.157 58.0051 36.3195 51.2614C31.5592 47.625 24.3747 49.1898 18.4023 51.9226C-2.53427 61.4873 -6.30294 89.7626 11.2837 105.123C13.4876 107.041 18.1597 107.327 16.7713 112.088C12.7823 125.509 14.5676 140.319 9.87339 153.035C-15.3827 229.002 20.1873 319.932 110.347 301.464C127.162 298.18 143.625 297.96 160.374 297.409C208.704 295.822 256.836 298.533 304.88 302.941C326.61 302.213 358.963 308.274 370.885 284.671C371.343 283.902 371.987 283.262 372.757 282.807C373.527 282.353 374.399 282.099 375.293 282.07C405.706 276.847 431.557 255.448 464.02 257.167C468.427 257.387 473.188 254.676 477.375 252.517C502.918 239.095 493.816 198.5 470.808 187.106ZM96.3082 295.447C80.8812 295.271 73.0135 284.428 77.3991 269.486C83.1732 249.938 107.746 230.544 128.198 229.376C144.308 228.451 154.468 240.66 150.721 256.395C145.895 277.023 119.757 295.712 96.3082 295.447ZM293.023 99.6137C296.153 83.3053 312.241 65.366 338.026 64.1539C376.659 62.3467 404.251 89.4981 422.345 123.658C425.739 130.071 425.056 136.109 422.896 142.721C416.703 161.652 419.326 166.963 437.684 174.963C461.64 185.321 468.075 206.104 452.317 227.26C434.003 251.855 407.161 263.646 378.709 272.241C375.095 273.321 373.949 272.241 373.265 268.186C368.329 239.382 354.158 226.709 324.649 224.373C313.71 223.244 302.719 222.707 291.723 222.765C253.002 223.889 225.101 191.095 221.2 153.498C220.56 145.49 219.18 137.56 217.079 129.806C213.795 118.787 202.423 115.988 193.961 124.099C183.58 134.06 179.812 147.371 178.82 160.947C175.272 210.137 186.93 253.883 227.701 288.065H142.435C157.862 272.638 164.804 255.382 162.424 234.864C159.228 207.492 141.972 193.674 114.842 198.038C106.468 199.382 104.11 196.737 102.545 189.685C100.65 181.112 97.9831 172.715 95.7572 164.208C86.5672 128.947 55.4709 116.848 24.4408 136.242C23.4811 136.656 22.4746 136.952 21.4436 137.123C32.2865 23.2065 175.316 -32.1541 262.037 45.1788C266.445 48.8813 269.001 51.57 265.321 58.4019C259.349 69.6195 258.996 82.4238 262.103 94.8976C263.889 102.082 267.944 107.57 275.922 108.672C279.38 109.378 282.977 108.861 286.096 107.208C289.216 105.556 291.664 102.872 293.023 99.6137Z" fill="#1C1C1C"/>
<path d="M454.036 199.823C453.662 208.219 446.587 218.335 441.254 218.115C435.061 217.872 425.827 208.947 425.827 202.93C425.607 196.098 434.51 190.368 445 190.545C451.458 190.17 454.433 193.476 454.036 199.823Z" fill="#1C1C1C"/>
<path d="M454.036 199.823C453.662 208.219 446.587 218.335 441.254 218.115C435.061 217.872 425.827 208.947 425.827 202.93C425.607 196.098 434.51 190.368 445 190.545C451.458 190.17 454.433 193.476 454.036 199.823Z" fill="#1C1C1C"/>
<g clip-path="url(#clip1_36_44)">
<path d="M281.433 147.924V140.177H293.051V134H510.997C510.997 138 510.997 141.922 510.997 145.847C510.997 146.051 510.914 146.413 510.82 146.435C509.956 146.635 510.251 147.402 510.243 147.961C510.215 149.985 510.243 152.027 510.243 154.257H503.323V162.048H496.398V169.767H489.592V177.451H452.989V169.686H446.108C446.108 167.809 446.108 166.079 446.108 164.369C446.108 162.658 445.575 162.036 444.006 162.029C442.437 162.023 440.928 162.029 439.266 162.029V152.334H419.952V162.067H413.085V169.751H406.251V181.511H397.624V191.006H365.899V185.245H354.339V177.492H347.571V169.733H340.665V158.089H333.732V146.62H299.565V150.345H286.099V157.041H290.518V167.021H281.5V158.12H277.011V147.921L281.433 147.924ZM477.178 157.788H481.532V153.663H484.368V157.779H489.028V153.547H492.49V148.568H488.139V152.653H484.41V148.474C483.045 148.474 481.816 148.431 480.595 148.515C480.366 148.531 479.996 149.04 479.974 149.35C479.896 150.42 479.943 151.499 479.943 152.731H477.181L477.178 157.788ZM375.509 158.936H379.832V154.06H375.509V158.936ZM371.365 153.504H375.68V148.568H371.365V153.504ZM361.833 154.213H365.949V158.967H370.396V154.041H366.388V149.263H361.833V154.213ZM353.353 153.497H357.742V148.493C356.444 148.493 355.217 148.459 353.996 148.528C353.849 148.576 353.715 148.667 353.608 148.79C353.501 148.914 353.423 149.067 353.383 149.234C353.314 150.607 353.347 152.009 353.347 153.497H353.353Z" fill="black"/>
</g>
</g>
<path d="M39.1948 322.178C44.8752 322.178 49.874 323.314 54.1911 325.473C58.5082 327.631 61.9165 330.699 64.3022 334.675C66.688 338.765 67.9377 343.423 67.9377 348.649C67.9377 353.988 66.688 358.646 64.3022 362.623C61.9165 366.599 58.5082 369.666 54.1911 371.825C49.874 373.983 44.8752 375.006 39.1948 375.006H23.8577V401.704H6.81649V322.178H39.1948ZM23.8577 360.805H37.6043C41.5806 360.805 44.7616 359.782 47.1474 357.51C49.4196 355.352 50.6692 352.398 50.6692 348.649C50.6692 344.9 49.4196 341.946 47.1474 339.674C44.7616 337.515 41.5806 336.379 37.6043 336.379H23.8577V360.805ZM130.286 388.184V401.704H122.106C114.721 401.704 111.086 398.523 111.313 392.161C109.154 395.569 106.541 398.068 103.474 399.772C100.293 401.59 96.5439 402.385 92.2268 402.385C85.6375 402.385 80.4115 400.909 76.4352 397.955C72.4589 395.001 70.5276 390.684 70.5276 385.231C70.5276 379.096 72.7998 374.324 77.3441 370.916C81.8884 367.508 88.5913 365.804 97.3391 365.804H108.927V362.963C108.927 360.35 107.905 358.305 105.973 356.715C103.928 355.124 101.315 354.329 98.0208 354.329C95.067 354.329 92.5676 355.011 90.7499 356.26C88.8185 357.624 87.6824 359.328 87.3416 361.486H71.8909C72.3453 355.579 75.0719 350.921 79.8435 347.626C84.615 344.332 90.8635 342.628 98.816 342.628C106.996 342.628 113.358 344.445 117.902 348.081C122.447 351.716 124.719 357.056 124.719 363.872V384.435C124.719 385.912 124.946 386.935 125.628 387.389C126.196 387.957 127.104 388.184 128.468 388.184H130.286ZM108.927 376.483H97.2255C93.8173 376.483 91.2043 377.164 89.3866 378.528C87.5688 379.891 86.66 381.709 86.66 384.094C86.66 386.139 87.3416 387.844 88.9321 388.98C90.5226 390.229 92.5676 390.797 95.2942 390.797C99.3841 390.797 102.679 389.661 105.178 387.276C107.564 384.89 108.814 381.709 108.927 377.619V376.483ZM186.811 348.99C191.128 353.307 193.4 360.237 193.4 370.007V401.704H177.381V370.916C177.381 360.918 173.405 355.806 165.566 355.806C161.363 355.806 158.182 357.283 155.909 360.01C153.637 362.85 152.501 366.826 152.501 371.825V401.704H136.482V343.309H150.456L151.933 350.58C153.978 348.081 156.364 346.149 159.318 344.786C162.158 343.423 165.68 342.628 169.997 342.628C176.813 342.628 182.38 344.786 186.811 348.99ZM261.888 322.178V401.704H247.914L246.324 393.638C241.779 399.545 235.758 402.385 228.147 402.385C222.921 402.385 218.376 401.249 214.286 398.75C210.196 396.251 206.902 392.729 204.63 388.184C202.357 383.64 201.221 378.414 201.221 372.393C201.221 366.485 202.357 361.373 204.63 356.829C206.902 352.284 210.196 348.876 214.286 346.377C218.376 343.877 223.034 342.628 228.26 342.628C235.758 342.628 241.666 345.354 245.869 350.58V322.178H261.888ZM242.234 384.776C244.733 381.709 246.097 377.619 246.097 372.62C246.097 367.621 244.733 363.531 242.234 360.35C239.621 357.283 236.213 355.692 231.896 355.692C227.578 355.692 224.057 357.283 221.444 360.35C218.831 363.531 217.581 367.508 217.581 372.506C217.581 377.505 218.831 381.595 221.444 384.663C224.057 387.844 227.578 389.32 231.896 389.32C236.213 389.32 239.621 387.844 242.234 384.776ZM320.658 346.377C324.748 348.876 327.929 352.284 330.201 356.829C332.473 361.373 333.723 366.712 333.723 372.62C333.723 378.641 332.473 383.867 330.201 388.298C327.929 392.842 324.748 396.251 320.658 398.75C316.568 401.249 311.91 402.385 306.684 402.385C299.186 402.385 293.279 399.772 289.075 394.319V424.425H273.056V343.309H287.03L288.621 351.375C290.552 348.762 293.051 346.604 296.119 345.013C299.186 343.423 302.708 342.628 306.798 342.628C312.024 342.628 316.568 343.877 320.658 346.377ZM313.501 384.663C316.114 381.482 317.477 377.392 317.477 372.393C317.477 367.394 316.114 363.418 313.501 360.35C310.774 357.283 307.366 355.692 303.049 355.692C298.732 355.692 295.21 357.283 292.711 360.35C290.098 363.418 288.848 367.394 288.848 372.393C288.848 377.505 290.098 381.595 292.711 384.663C295.21 387.844 298.732 389.32 303.049 389.32C307.366 389.32 310.774 387.844 313.501 384.663ZM354.889 398.75C350.231 396.251 346.595 392.729 344.096 388.184C341.597 383.64 340.347 378.414 340.347 372.506C340.347 366.599 341.597 361.373 344.096 356.829C346.595 352.284 350.231 348.876 354.889 346.377C359.547 343.877 365 342.628 371.135 342.628C377.27 342.628 382.609 343.877 387.267 346.377C391.925 348.876 395.561 352.284 398.06 356.829C400.559 361.373 401.923 366.599 401.923 372.506C401.923 378.528 400.559 383.754 398.06 388.298C395.561 392.842 391.925 396.251 387.267 398.75C382.609 401.249 377.27 402.385 371.135 402.385C365 402.385 359.547 401.249 354.889 398.75ZM381.7 384.663C384.313 381.595 385.677 377.505 385.677 372.506C385.677 367.508 384.313 363.531 381.7 360.35C379.087 357.283 375.566 355.692 371.135 355.692C366.704 355.692 363.182 357.283 360.569 360.35C357.956 363.531 356.707 367.508 356.707 372.506C356.707 377.505 357.956 381.595 360.569 384.663C363.182 387.844 366.704 389.32 371.135 389.32C375.566 389.32 379.087 387.844 381.7 384.663ZM410.74 322.178H426.758V401.704H410.74V322.178ZM437.921 322.178H453.94V401.704H437.921V322.178ZM478.168 382.277C478.395 384.89 479.645 386.935 481.917 388.525C484.189 390.116 487.029 390.911 490.665 390.911C494.073 390.911 496.686 390.457 498.731 389.32C500.662 388.184 501.685 386.594 501.685 384.549C501.685 383.072 501.23 381.936 500.322 381.141C499.413 380.459 498.049 379.891 496.459 379.55C494.755 379.209 492.028 378.755 488.279 378.3C483.053 377.619 478.85 376.824 475.441 375.687C472.033 374.665 469.306 372.961 467.262 370.689C465.217 368.417 464.194 365.463 464.194 361.6C464.194 357.851 465.217 354.556 467.262 351.603C469.306 348.649 472.26 346.377 476.123 344.786C479.872 343.196 484.189 342.4 489.188 342.4C497.141 342.514 503.503 344.218 508.388 347.513C513.273 350.921 515.886 355.465 516.34 361.373H501.117C500.89 359.214 499.64 357.397 497.595 356.033C495.55 354.67 492.823 353.875 489.642 353.875C486.575 353.875 484.076 354.443 482.258 355.579C480.44 356.715 479.531 358.305 479.531 360.123C479.531 361.486 479.986 362.509 481.008 363.191C481.917 363.872 483.28 364.44 484.871 364.667C486.461 365.008 489.074 365.349 492.823 365.69C500.662 366.599 506.684 368.303 510.887 370.802C515.091 373.302 517.249 377.505 517.249 383.413C517.249 387.276 516.113 390.57 513.841 393.41C511.569 396.364 508.501 398.523 504.525 400.113C500.549 401.704 496.004 402.385 490.778 402.385C482.599 402.385 476.009 400.681 471.011 397.046C465.898 393.41 463.172 388.525 462.944 382.277H478.168Z" fill="#1C1C1C"/>
<defs>
<clipPath id="clip0_36_44">
<rect width="521" height="304" fill="white"/>
</clipPath>
<clipPath id="clip1_36_44">
<rect width="234" height="57" fill="white" transform="matrix(-1 0 0 1 511 134)"/>
</clipPath>
</defs>
</svg>
