<svg width="521" height="458" viewBox="0 0 521 458" fill="none" xmlns="http://www.w3.org/2000/svg">
<g clip-path="url(#clip0_36_44)">
<path d="M454.036 199.823C453.662 208.219 446.587 218.335 441.254 218.115C435.061 217.872 425.827 208.947 425.827 202.93C425.607 196.098 434.51 190.368 445 190.545C451.458 190.17 454.433 193.476 454.036 199.823Z" fill="#1C1C1C"/>
<path d="M470.808 187.106C460.802 181.685 455.381 170.401 443.612 167.272C440.615 166.5 441.585 162.864 441.408 160.484C438.279 124.649 421.574 96.5725 392.747 75.6139C388.075 72.22 386.136 69.2889 386.136 63.4487C385.695 45.5755 373.574 34.6003 355.613 34.6003C349.729 34.4435 343.893 35.7054 338.6 38.2793C333.306 40.8532 328.71 44.6634 325.2 49.3882C320.461 55.4928 316.649 57.7407 311.161 49.5424C304.241 39.2063 294.456 36.3194 283.304 41.6086C277.288 44.4295 274.004 43.6802 269.178 39.4047C206.456 -16.0881 113.586 -12.7162 54.7216 47.1843C49.0357 52.9584 45.157 58.0051 36.3195 51.2614C31.5592 47.625 24.3747 49.1898 18.4023 51.9226C-2.53427 61.4873 -6.30294 89.7626 11.2837 105.123C13.4876 107.041 18.1597 107.327 16.7713 112.088C12.7823 125.509 14.5676 140.319 9.87339 153.035C-15.3827 229.002 20.1873 319.932 110.347 301.464C127.162 298.18 143.625 297.96 160.374 297.409C208.704 295.822 256.836 298.533 304.88 302.941C326.61 302.213 358.963 308.274 370.885 284.671C371.343 283.902 371.987 283.262 372.757 282.807C373.527 282.353 374.399 282.099 375.293 282.07C405.706 276.847 431.557 255.448 464.02 257.167C468.427 257.387 473.188 254.676 477.375 252.517C502.918 239.095 493.816 198.5 470.808 187.106ZM96.3082 295.447C80.8812 295.271 73.0135 284.428 77.3991 269.486C83.1732 249.938 107.746 230.544 128.198 229.376C144.308 228.451 154.468 240.66 150.721 256.395C145.895 277.023 119.757 295.712 96.3082 295.447ZM293.023 99.6137C296.153 83.3053 312.241 65.366 338.026 64.1539C376.659 62.3467 404.251 89.4981 422.345 123.658C425.739 130.071 425.056 136.109 422.896 142.721C416.703 161.652 419.326 166.963 437.684 174.963C461.64 185.321 468.075 206.104 452.317 227.26C434.003 251.855 407.161 263.646 378.709 272.241C375.095 273.321 373.949 272.241 373.265 268.186C368.329 239.382 354.158 226.709 324.649 224.373C313.71 223.244 302.719 222.707 291.723 222.765C253.002 223.889 225.101 191.095 221.2 153.498C220.56 145.49 219.18 137.56 217.079 129.806C213.795 118.787 202.423 115.988 193.961 124.099C183.58 134.06 179.812 147.371 178.82 160.947C175.272 210.137 186.93 253.883 227.701 288.065H142.435C157.862 272.638 164.804 255.382 162.424 234.864C159.228 207.492 141.972 193.674 114.842 198.038C106.468 199.382 104.11 196.737 102.545 189.685C100.65 181.112 97.9831 172.715 95.7572 164.208C86.5672 128.947 55.4709 116.848 24.4408 136.242C23.4811 136.656 22.4746 136.952 21.4436 137.123C32.2865 23.2065 175.316 -32.1541 262.037 45.1788C266.445 48.8813 269.001 51.57 265.321 58.4019C259.349 69.6195 258.996 82.4238 262.103 94.8976C263.889 102.082 267.944 107.57 275.922 108.672C279.38 109.378 282.977 108.861 286.096 107.208C289.216 105.556 291.664 102.872 293.023 99.6137Z" fill="#1C1C1C"/>
<path d="M454.036 199.823C453.662 208.219 446.587 218.335 441.254 218.115C435.061 217.872 425.827 208.947 425.827 202.93C425.607 196.098 434.51 190.368 445 190.545C451.458 190.17 454.433 193.476 454.036 199.823Z" fill="#1C1C1C"/>
<path d="M454.036 199.823C453.662 208.219 446.587 218.335 441.254 218.115C435.061 217.872 425.827 208.947 425.827 202.93C425.607 196.098 434.51 190.368 445 190.545C451.458 190.17 454.433 193.476 454.036 199.823Z" fill="#1C1C1C"/>
<g clip-path="url(#clip1_36_44)">
<path d="M281.433 147.924V140.177H293.051V134H510.997C510.997 138 510.997 141.922 510.997 145.847C510.997 146.051 510.914 146.413 510.82 146.435C509.956 146.635 510.251 147.402 510.243 147.961C510.215 149.985 510.243 152.027 510.243 154.257H503.323V162.048H496.398V169.767H489.592V177.451H452.989V169.686H446.108C446.108 167.809 446.108 166.079 446.108 164.369C446.108 162.658 445.575 162.036 444.006 162.029C442.437 162.023 440.928 162.029 439.266 162.029V152.334H419.952V162.067H413.085V169.751H406.251V181.511H397.624V191.006H365.899V185.245H354.339V177.492H347.571V169.733H340.665V158.089H333.732V146.62H299.565V150.345H286.099V157.041H290.518V167.021H281.5V158.12H277.011V147.921L281.433 147.924ZM477.178 157.788H481.532V153.663H484.368V157.779H489.028V153.547H492.49V148.568H488.139V152.653H484.41V148.474C483.045 148.474 481.816 148.431 480.595 148.515C480.366 148.531 479.996 149.04 479.974 149.35C479.896 150.42 479.943 151.499 479.943 152.731H477.181L477.178 157.788ZM375.509 158.936H379.832V154.06H375.509V158.936ZM371.365 153.504H375.68V148.568H371.365V153.504ZM361.833 154.213H365.949V158.967H370.396V154.041H366.388V149.263H361.833V154.213ZM353.353 153.497H357.742V148.493C356.444 148.493 355.217 148.459 353.996 148.528C353.849 148.576 353.715 148.667 353.608 148.79C353.501 148.914 353.423 149.067 353.383 149.234C353.314 150.607 353.347 152.009 353.347 153.497H353.353Z" fill="black"/>
</g>
</g>
<path d="M48.6609 330.971C55.7132 330.971 61.9192 332.382 67.279 335.062C72.6388 337.742 76.8701 341.55 79.8321 346.487C82.7941 351.564 84.3456 357.347 84.3456 363.835C84.3456 370.464 82.7941 376.247 79.8321 381.184C76.8701 386.121 72.6388 389.929 67.279 392.609C61.9192 395.289 55.7132 396.558 48.6609 396.558H29.6197V429.704H8.46277V330.971H48.6609ZM29.6197 378.927H46.6863C51.6229 378.927 55.5722 377.658 58.5341 374.837C61.3551 372.157 62.9066 368.49 62.9066 363.835C62.9066 359.181 61.3551 355.514 58.5341 352.693C55.5722 350.013 51.6229 348.602 46.6863 348.602H29.6197V378.927ZM161.751 412.919V429.704H151.596C142.428 429.704 137.914 425.754 138.197 417.856C135.517 422.087 132.273 425.19 128.464 427.306C124.515 429.563 119.861 430.55 114.501 430.55C106.32 430.55 99.832 428.716 94.8954 425.049C89.9588 421.382 87.561 416.022 87.561 409.252C87.561 401.636 90.3819 395.712 96.0238 391.48C101.666 387.249 109.987 385.133 120.848 385.133H135.235V381.607C135.235 378.363 133.965 375.824 131.567 373.85C129.029 371.875 125.784 370.888 121.694 370.888C118.027 370.888 114.924 371.734 112.667 373.285C110.269 374.978 108.859 377.094 108.436 379.773H89.2535C89.8177 372.439 93.2028 366.656 99.1268 362.566C105.051 358.475 112.808 356.36 122.681 356.36C132.837 356.36 140.735 358.617 146.377 363.13C152.019 367.643 154.84 374.273 154.84 382.735V408.265C154.84 410.098 155.122 411.368 155.968 411.932C156.674 412.637 157.802 412.919 159.495 412.919H161.751ZM135.235 398.392H120.707C116.475 398.392 113.231 399.238 110.975 400.93C108.718 402.623 107.59 404.88 107.59 407.842C107.59 410.38 108.436 412.496 110.41 413.907C112.385 415.458 114.924 416.163 118.309 416.163C123.387 416.163 127.477 414.753 130.58 411.791C133.542 408.829 135.094 404.88 135.235 399.802V398.392ZM231.928 364.258C237.288 369.618 240.109 378.222 240.109 390.352V429.704H220.221V391.48C220.221 379.068 215.285 372.721 205.553 372.721C200.334 372.721 196.385 374.555 193.564 377.94C190.743 381.466 189.332 386.403 189.332 392.609V429.704H169.445V357.206H186.794L188.627 366.233C191.166 363.13 194.128 360.732 197.795 359.04C201.321 357.347 205.694 356.36 211.053 356.36C219.516 356.36 226.427 359.04 231.928 364.258ZM325.138 330.971V429.704H307.789L305.814 419.689C300.173 427.024 292.697 430.55 283.247 430.55C276.759 430.55 271.117 429.14 266.039 426.037C260.962 422.934 256.871 418.561 254.05 412.919C251.23 407.277 249.819 400.789 249.819 393.314C249.819 385.979 251.23 379.632 254.05 373.991C256.871 368.349 260.962 364.117 266.039 361.014C271.117 357.911 276.9 356.36 283.388 356.36C292.697 356.36 300.032 359.745 305.25 366.233V330.971H325.138ZM300.737 408.688C303.84 404.88 305.532 399.802 305.532 393.596C305.532 387.39 303.84 382.312 300.737 378.363C297.493 374.555 293.261 372.58 287.902 372.58C282.542 372.58 278.169 374.555 274.925 378.363C271.681 382.312 270.13 387.249 270.13 393.455C270.13 399.661 271.681 404.739 274.925 408.547C278.169 412.496 282.542 414.33 287.902 414.33C293.261 414.33 297.493 412.496 300.737 408.688ZM340.696 373.991C343.799 368.349 348.03 364.117 353.531 361.014C359.032 357.911 365.379 356.36 372.713 356.36C380.048 356.36 386.395 357.911 392.037 360.732C397.678 363.553 402.051 367.643 405.154 372.862C408.257 378.081 409.949 384.146 410.09 391.198C410.09 393.737 409.808 395.994 409.526 397.968H356.916V398.533C357.339 403.892 359.032 407.983 361.994 410.945C364.815 414.048 368.905 415.458 373.983 415.458C377.932 415.458 381.317 414.612 383.997 412.919C386.677 411.227 388.51 408.547 389.357 405.162H408.962C408.116 409.957 406.282 414.33 403.461 418.138C400.499 422.087 396.691 425.049 391.896 427.306C387.1 429.563 381.599 430.55 375.393 430.55C367.212 430.55 360.301 429.14 354.377 426.037C348.453 423.075 343.94 418.843 340.837 413.201C337.734 407.56 336.182 401.071 336.182 393.596C336.182 386.121 337.593 379.632 340.696 373.991ZM390.203 384.992C389.498 380.62 387.664 377.235 384.702 374.837C381.74 372.439 378.073 371.17 373.56 371.17C369.187 371.17 365.52 372.439 362.558 374.978C359.596 377.517 357.903 380.761 357.339 384.992H390.203ZM465.106 357.206V375.26H457.208C451.566 375.26 447.334 376.953 444.796 380.338C442.116 383.723 440.846 388.377 440.846 394.16V429.704H420.959V357.206H439.013L440.846 368.067C442.962 364.54 445.642 361.861 448.886 360.027C451.989 358.193 456.361 357.206 461.721 357.206H465.106Z" fill="#1C1C1C"/>
<defs>
<clipPath id="clip0_36_44">
<rect width="521" height="304" fill="white"/>
</clipPath>
<clipPath id="clip1_36_44">
<rect width="234" height="57" fill="white" transform="matrix(-1 0 0 1 511 134)"/>
</clipPath>
</defs>
</svg>
